<?xml version="1.0" standalone="no"?>
<!DOCTYPE svg PUBLIC "-//W3C//DTD SVG 20010904//EN"
 "http://www.w3.org/TR/2001/REC-SVG-20010904/DTD/svg10.dtd">
<svg version="1.0" xmlns="http://www.w3.org/2000/svg"
 width="252.000000pt" height="200.000000pt" viewBox="0 0 252.000000 200.000000"
 preserveAspectRatio="xMidYMid meet">

<g transform="translate(0.000000,200.000000) scale(0.100000,-0.100000)"
fill="#000000" stroke="none">
<path d="M1638 1866 c-52 -19 -83 -40 -111 -78 -33 -44 -50 -102 -45 -147 5
-36 4 -37 -96 -112 -55 -42 -176 -133 -268 -203 l-166 -126 -44 20 c-62 28
-123 26 -189 -7 -131 -67 -157 -235 -54 -339 23 -23 59 -47 80 -54 33 -11 129
-10 162 1 6 2 139 -93 295 -211 l283 -214 0 -61 c0 -116 83 -203 201 -213 110
-9 213 74 230 185 13 87 -37 182 -117 223 -57 30 -151 27 -208 -5 l-44 -25
-268 201 c-148 111 -269 204 -269 208 0 3 7 26 16 51 11 31 14 61 9 95 l-6 51
158 125 c267 213 354 273 372 260 102 -72 209 -66 292 18 92 92 92 209 -2 302
-36 37 -57 49 -98 58 -64 13 -67 13 -113 -3z m149 -130 c71 -77 18 -196 -87
-196 -67 0 -120 53 -120 120 0 110 132 158 207 76z m-899 -612 c56 -39 67
-131 21 -180 -52 -55 -134 -52 -185 9 -23 27 -26 38 -21 81 6 69 47 106 115
106 27 0 57 -7 70 -16z m899 -708 c70 -76 19 -196 -82 -196 -105 0 -163 113
-98 190 34 41 58 51 108 45 30 -3 48 -13 72 -39z"/>
</g>
</svg>
